<svg width="73" height="73" viewBox="0 0 73 73" fill="none" xmlns="http://www.w3.org/2000/svg">
<g clip-path="url(#clip0_157_5432)">
<path d="M36.0636 49.1209C35.9132 49.3231 35.7888 49.546 35.6177 49.7223C28.0901 57.2551 20.5521 64.7827 13.0297 72.3207C12.6823 72.668 12.335 72.8236 11.8373 72.8236C8.20823 72.8028 4.58439 72.8028 0.955375 72.8236C0.405838 72.8288 0.255486 72.6784 0.260671 72.1289C0.286592 68.4843 0.281408 64.8345 0.260671 61.19C0.260671 60.7337 0.40065 60.4227 0.716893 60.1064C8.27043 52.5685 15.8189 45.0253 23.3724 37.4821C23.5487 37.3058 23.756 37.171 24.0101 36.9689C23.7457 36.6889 23.5694 36.4919 23.388 36.3053C15.8551 28.7776 8.32228 21.2448 0.779102 13.7224C0.411016 13.3543 0.255486 12.9966 0.260671 12.4781C0.281408 8.83361 0.286592 5.18385 0.260671 1.53928C0.250302 0.958633 0.431755 0.823841 0.991661 0.823841C4.51699 0.849763 8.03715 0.844579 11.5625 0.823841C12.1484 0.818657 12.5735 0.994923 12.9882 1.40967C21.4075 9.83936 29.8372 18.2587 38.2617 26.6832C49.3717 37.788 60.4765 48.8928 71.6021 59.982C72.0219 60.402 72.1775 60.8115 72.1723 61.3922C72.1464 64.9538 72.1464 68.5206 72.1723 72.0822C72.1775 72.6369 72.0427 72.8236 71.4569 72.8184C67.8279 72.7925 64.204 72.7976 60.575 72.8132C60.0981 72.8132 59.7663 72.6732 59.4345 72.3414C51.8965 64.7879 44.3429 57.2499 36.7998 49.7015C36.6287 49.5304 36.5198 49.2868 36.385 49.0794C36.2761 49.095 36.1725 49.1105 36.0636 49.1209Z" fill="#F4F4EF"/>
<path d="M72.1616 0.955251C72.1616 1.89361 72.1616 2.82679 72.1616 3.75478C72.1616 6.69429 72.172 9.63898 72.1461 12.5785C72.1461 12.8532 72.0268 13.1902 71.8402 13.382C69.3154 15.969 66.7855 18.5456 64.2296 21.1015C61.9485 23.3826 59.6363 25.6377 57.3293 27.8981C57.1842 28.0381 56.9509 28.1781 56.759 28.1781C52.8449 28.1936 48.9255 28.1884 44.9543 28.1884C44.944 27.9966 44.9233 27.8203 44.9181 27.6441C44.9181 23.8958 44.9077 20.1476 44.9284 16.3993C44.9284 16.1297 45.0684 15.7927 45.255 15.6009C50.0194 10.8158 54.7942 6.04106 59.5845 1.27668C59.7711 1.09004 60.0718 0.918961 60.3155 0.918961C64.1674 0.898224 68.0246 0.903408 71.8765 0.903408C71.9646 0.898224 72.0424 0.929329 72.1616 0.955251Z" fill="#1A7DFF"/>
</g>
<defs>
<clipPath id="clip0_157_5432">
<rect width="72" height="72" fill="white" transform="translate(0.260254 0.82373)"/>
</clipPath>
</defs>
</svg>
