<svg width="274" height="274" viewBox="0 0 274 274" fill="none" xmlns="http://www.w3.org/2000/svg">
<path d="M264.95 0.0193024L264.95 1.55634L267.941 4.54749L264.95 7.53864L264.95 9.07567L266.487 9.07567L269.478 6.08452L272.469 9.07567L274 9.07567L274 7.53863L271.009 4.54749L274 1.55634L274 0.019302L272.469 0.019302L269.478 3.01045L266.487 0.0193023L264.95 0.0193024Z" fill="white"/>
<path d="M235.51 29.4588L235.51 30.9958L238.501 33.987L235.51 36.9781L235.51 38.5151L237.047 38.5151L240.038 35.524L243.03 38.5151L244.567 38.5151L244.567 36.9781L241.575 33.987L244.567 30.9958L244.567 29.4588L243.03 29.4588L240.038 32.4499L237.047 29.4588L235.51 29.4588Z" fill="white"/>
<path d="M264.95 29.4588L264.95 30.9958L267.941 33.987L264.95 36.9781L264.95 38.5151L266.487 38.5151L269.478 35.524L272.469 38.5151L274 38.5151L274 36.9781L271.009 33.987L274 30.9958L274 29.4588L272.469 29.4588L269.478 32.4499L266.487 29.4588L264.95 29.4588Z" fill="white"/>
<path d="M206.079 58.892L206.079 60.429L209.07 63.4201L206.079 66.4113L206.079 67.9292L207.616 67.9292L210.607 64.938L213.598 67.9292L215.135 67.9292L215.135 66.3922L212.137 63.401L215.129 60.4099L215.129 58.8728L213.598 58.8728L210.607 61.864L207.616 58.8728L206.079 58.8728L206.079 58.892Z" fill="white"/>
<path d="M235.51 58.892L235.51 60.429L238.501 63.4201L235.51 66.4113L235.51 67.9292L237.047 67.9292L240.038 64.938L243.03 67.9292L244.567 67.9292L244.567 66.3922L241.575 63.401L244.567 60.4099L244.567 58.8728L243.03 58.8728L240.038 61.864L237.047 58.8728L235.51 58.8728L235.51 58.892Z" fill="white"/>
<path d="M264.95 58.892L264.95 60.429L267.941 63.4201L264.95 66.4113L264.95 67.9292L266.487 67.9292L269.478 64.938L272.469 67.9292L274 67.9292L274 66.3922L271.009 63.401L274 60.4099L274 58.8728L272.469 58.8728L269.478 61.864L266.487 58.8728L264.95 58.8728L264.95 58.892Z" fill="white"/>
<path d="M176.663 88.3377L176.663 89.8747L179.654 92.8659L176.663 95.857L176.663 97.394L178.2 97.394L181.191 94.4029L184.182 97.394L185.719 97.394L185.719 95.857L182.728 92.8659L185.719 89.8747L185.719 88.3377L184.182 88.3377L181.191 91.3288L178.2 88.3377L176.663 88.3377Z" fill="white"/>
<path d="M206.079 88.3377L206.079 89.8747L209.07 92.8659L206.079 95.857L206.079 97.394L207.616 97.394L210.607 94.4029L213.598 97.394L215.135 97.394L215.135 95.857L212.137 92.8659L215.129 89.8747L215.129 88.3377L213.598 88.3377L210.607 91.3288L207.616 88.3377L206.079 88.3377Z" fill="white"/>
<path d="M235.51 88.3377L235.51 89.8747L238.501 92.8659L235.51 95.857L235.51 97.394L237.047 97.394L240.038 94.4029L243.03 97.394L244.567 97.394L244.567 95.857L241.575 92.8659L244.567 89.8747L244.567 88.3377L243.03 88.3377L240.038 91.3288L237.047 88.3377L235.51 88.3377Z" fill="white"/>
<path d="M264.95 88.3377L264.95 89.8747L267.941 92.8659L264.95 95.857L264.95 97.394L266.487 97.394L269.478 94.4029L272.469 97.394L274 97.394L274 95.857L271.009 92.8659L274 89.8747L274 88.3377L272.469 88.3377L269.478 91.3288L266.487 88.3377L264.95 88.3377Z" fill="white"/>
<path d="M147.204 117.765L147.204 119.302L150.195 122.294L147.204 125.285L147.204 126.822L148.741 126.822L151.732 123.831L154.723 126.822L156.254 126.822L156.254 125.285L153.263 122.294L156.254 119.302L156.254 117.765L154.717 117.765L151.726 120.757L148.735 117.765L147.198 117.765L147.204 117.765Z" fill="white"/>
<path d="M176.663 117.765L176.663 119.302L179.654 122.294L176.663 125.285L176.663 126.822L178.2 126.822L181.191 123.831L184.182 126.822L185.719 126.822L185.719 125.285L182.728 122.294L185.719 119.302L185.719 117.765L184.182 117.765L181.191 120.757L178.2 117.765L176.663 117.765Z" fill="white"/>
<path d="M206.079 117.765L206.079 119.302L209.07 122.294L206.079 125.285L206.079 126.822L207.616 126.822L210.607 123.831L213.598 126.822L215.135 126.822L215.135 125.285L212.137 122.294L215.129 119.302L215.129 117.765L213.598 117.765L210.607 120.757L207.616 117.765L206.079 117.765Z" fill="white"/>
<path d="M235.51 117.765L235.51 119.302L238.501 122.294L235.51 125.285L235.51 126.822L237.047 126.822L240.038 123.831L243.03 126.822L244.567 126.822L244.567 125.285L241.575 122.294L244.567 119.302L244.567 117.765L243.03 117.765L240.038 120.757L237.047 117.765L235.51 117.765Z" fill="white"/>
<path d="M264.95 117.765L264.95 119.302L267.941 122.294L264.95 125.285L264.95 126.822L266.487 126.822L269.478 123.831L272.469 126.822L274 126.822L274 125.285L271.009 122.294L274 119.302L274 117.765L272.469 117.765L269.478 120.757L266.487 117.765L264.95 117.765Z" fill="white"/>
<path d="M117.766 147.204L117.766 148.741L120.757 151.732L117.766 154.723L117.766 156.26L119.303 156.26L122.294 153.269L125.285 156.254L126.822 156.254L126.822 154.723L123.831 151.732L126.822 148.741L126.822 147.204L125.285 147.204L122.294 150.195L119.303 147.204L117.766 147.204Z" fill="white"/>
<path d="M147.204 147.204L147.204 148.741L150.195 151.732L147.204 154.723L147.204 156.26L148.741 156.26L151.732 153.269L154.723 156.254L156.254 156.254L156.254 154.723L153.263 151.732L156.254 148.741L156.254 147.204L154.717 147.204L151.726 150.195L148.735 147.204L147.198 147.204L147.204 147.204Z" fill="white"/>
<path d="M176.663 147.204L176.663 148.741L179.654 151.732L176.663 154.723L176.663 156.26L178.2 156.26L181.191 153.269L184.182 156.254L185.719 156.254L185.719 154.723L182.728 151.732L185.719 148.741L185.719 147.204L184.182 147.204L181.191 150.195L178.2 147.204L176.663 147.204Z" fill="white"/>
<path d="M206.079 147.204L206.079 148.741L209.07 151.732L206.079 154.723L206.079 156.26L207.616 156.26L210.607 153.269L213.598 156.254L215.135 156.254L215.135 154.723L212.137 151.732L215.129 148.741L215.129 147.204L213.598 147.204L210.607 150.195L207.616 147.204L206.079 147.204Z" fill="white"/>
<path d="M235.51 147.204L235.51 148.741L238.501 151.732L235.51 154.723L235.51 156.26L237.047 156.26L240.038 153.269L243.03 156.254L244.567 156.254L244.567 154.723L241.575 151.732L244.567 148.741L244.567 147.204L243.03 147.204L240.038 150.195L237.047 147.204L235.51 147.204Z" fill="white"/>
<path d="M264.95 147.204L264.95 148.741L267.941 151.732L264.95 154.723L264.95 156.26L266.487 156.26L269.478 153.269L272.469 156.254L274 156.254L274 154.723L271.009 151.732L274 148.741L274 147.204L272.469 147.204L269.478 150.195L266.487 147.204L264.95 147.204Z" fill="white"/>
<path d="M88.3325 176.637L88.3325 178.175L91.3236 181.166L88.3325 184.157L88.3325 185.694L89.8696 185.694L92.8607 182.703L95.8519 185.694L97.3889 185.694L97.3889 184.157L94.3977 181.166L97.3888 178.175L97.3888 176.637L95.8519 176.637L92.8607 179.629L89.8696 176.637L88.3325 176.637Z" fill="white"/>
<path d="M117.766 176.637L117.766 178.175L120.757 181.166L117.766 184.157L117.766 185.694L119.303 185.694L122.294 182.703L125.285 185.694L126.822 185.694L126.822 184.157L123.831 181.166L126.822 178.175L126.822 176.637L125.285 176.637L122.294 179.629L119.303 176.637L117.766 176.637Z" fill="white"/>
<path d="M147.204 176.637L147.204 178.175L150.195 181.166L147.204 184.157L147.204 185.694L148.741 185.694L151.732 182.703L154.723 185.694L156.254 185.694L156.254 184.157L153.263 181.166L156.254 178.175L156.254 176.637L154.717 176.637L151.726 179.629L148.735 176.637L147.198 176.637L147.204 176.637Z" fill="white"/>
<path d="M176.663 176.637L176.663 178.175L179.654 181.166L176.663 184.157L176.663 185.694L178.2 185.694L181.191 182.703L184.182 185.694L185.719 185.694L185.719 184.157L182.728 181.166L185.719 178.175L185.719 176.637L184.182 176.637L181.191 179.629L178.2 176.637L176.663 176.637Z" fill="white"/>
<path d="M206.079 176.637L206.079 178.175L209.07 181.166L206.079 184.157L206.079 185.694L207.616 185.694L210.607 182.703L213.598 185.694L215.135 185.694L215.135 184.157L212.137 181.166L215.129 178.175L215.129 176.637L213.598 176.637L210.607 179.629L207.616 176.637L206.079 176.637Z" fill="white"/>
<path d="M235.51 176.637L235.51 178.175L238.501 181.166L235.51 184.157L235.51 185.694L237.047 185.694L240.038 182.703L243.03 185.694L244.567 185.694L244.567 184.157L241.575 181.166L244.567 178.175L244.567 176.637L243.03 176.637L240.038 179.629L237.047 176.637L235.51 176.637Z" fill="white"/>
<path d="M264.95 176.637L264.95 178.175L267.941 181.166L264.95 184.157L264.95 185.694L266.487 185.694L269.478 182.703L272.469 185.694L274 185.694L274 184.157L271.009 181.166L274 178.175L274 176.637L272.469 176.637L269.478 179.629L266.487 176.637L264.95 176.637Z" fill="white"/>
<path d="M58.8931 206.077L58.8931 207.601L61.8842 210.592L58.8931 213.584L58.8931 215.114L60.4301 215.114L63.4212 212.123L66.4124 215.114L67.9494 215.114L67.9494 213.584L64.9582 210.592L67.9494 207.601L67.9494 206.064L66.4124 206.064L63.4212 209.055L60.4301 206.064L58.8931 206.064L58.8931 206.077Z" fill="white"/>
<path d="M88.3325 206.077L88.3325 207.601L91.3236 210.592L88.3325 213.584L88.3325 215.114L89.8696 215.114L92.8607 212.123L95.8519 215.114L97.3889 215.114L97.3889 213.584L94.3977 210.592L97.3888 207.601L97.3888 206.064L95.8519 206.064L92.8607 209.055L89.8696 206.064L88.3325 206.064L88.3325 206.077Z" fill="white"/>
<path d="M117.766 206.077L117.766 207.601L120.757 210.592L117.766 213.584L117.766 215.114L119.303 215.114L122.294 212.123L125.285 215.114L126.822 215.114L126.822 213.584L123.831 210.592L126.822 207.601L126.822 206.064L125.285 206.064L122.294 209.055L119.303 206.064L117.766 206.064L117.766 206.077Z" fill="white"/>
<path d="M147.204 206.077L147.204 207.601L150.195 210.592L147.204 213.584L147.204 215.114L148.741 215.114L151.732 212.123L154.723 215.114L156.254 215.114L156.254 213.584L153.263 210.592L156.254 207.601L156.254 206.064L154.717 206.064L151.726 209.055L148.735 206.064L147.198 206.064L147.204 206.077Z" fill="white"/>
<path d="M176.663 206.077L176.663 207.601L179.654 210.592L176.663 213.584L176.663 215.114L178.2 215.114L181.191 212.123L184.182 215.114L185.719 215.114L185.719 213.584L182.728 210.592L185.719 207.601L185.719 206.064L184.182 206.064L181.191 209.055L178.2 206.064L176.663 206.064L176.663 206.077Z" fill="white"/>
<path d="M206.079 206.077L206.079 207.601L209.07 210.592L206.079 213.584L206.079 215.114L207.616 215.114L210.607 212.123L213.598 215.114L215.135 215.114L215.135 213.584L212.137 210.592L215.129 207.601L215.129 206.064L213.598 206.064L210.607 209.055L207.616 206.064L206.079 206.064L206.079 206.077Z" fill="white"/>
<path d="M235.51 206.077L235.51 207.601L238.501 210.592L235.51 213.584L235.51 215.114L237.047 215.114L240.038 212.123L243.03 215.114L244.567 215.114L244.567 213.584L241.575 210.592L244.567 207.601L244.567 206.064L243.03 206.064L240.038 209.055L237.047 206.064L235.51 206.064L235.51 206.077Z" fill="white"/>
<path d="M264.95 206.077L264.95 207.601L267.941 210.592L264.95 213.584L264.95 215.114L266.487 215.114L269.478 212.123L272.469 215.114L274 215.114L274 213.584L271.009 210.592L274 207.601L274 206.064L272.469 206.064L269.478 209.055L266.487 206.064L264.95 206.064L264.95 206.077Z" fill="white"/>
<path d="M29.4595 235.51L29.4595 237.047L32.4506 240.039L29.4595 243.03L29.4595 244.592L30.9965 244.592L33.9876 241.601L36.9916 244.592L38.5286 244.592L38.5286 243.055L35.5374 240.064L38.5286 237.073L38.5286 235.536L36.9916 235.536L34.0004 238.527L31.0093 235.536L29.4722 235.536L29.4595 235.51Z" fill="white"/>
<path d="M58.8931 235.51L58.8931 237.047L61.8842 240.039L58.8931 243.03L58.8931 244.592L60.4301 244.592L63.4212 241.601L66.4124 244.592L67.9494 244.592L67.9494 243.055L64.9582 240.064L67.9494 237.073L67.9494 235.536L66.4124 235.536L63.4212 238.527L60.4301 235.536L58.8931 235.536L58.8931 235.51Z" fill="white"/>
<path d="M88.3325 235.51L88.3325 237.047L91.3236 240.039L88.3325 243.03L88.3325 244.592L89.8696 244.592L92.8607 241.601L95.8519 244.592L97.3889 244.592L97.3889 243.055L94.3977 240.064L97.3888 237.073L97.3888 235.536L95.8519 235.536L92.8607 238.527L89.8696 235.536L88.3325 235.536L88.3325 235.51Z" fill="white"/>
<path d="M117.766 235.51L117.766 237.047L120.757 240.039L117.766 243.03L117.766 244.592L119.303 244.592L122.294 241.601L125.285 244.592L126.822 244.592L126.822 243.055L123.831 240.064L126.822 237.073L126.822 235.536L125.285 235.536L122.294 238.527L119.303 235.536L117.766 235.536L117.766 235.51Z" fill="white"/>
<path d="M147.204 235.51L147.204 237.047L150.195 240.039L147.204 243.03L147.204 244.592L148.741 244.592L151.732 241.601L154.723 244.592L156.254 244.592L156.254 243.055L153.263 240.064L156.254 237.073L156.254 235.536L154.717 235.536L151.726 238.527L148.735 235.536L147.198 235.536L147.204 235.51Z" fill="white"/>
<path d="M176.663 235.51L176.663 237.047L179.654 240.039L176.663 243.03L176.663 244.592L178.2 244.592L181.191 241.601L184.182 244.592L185.719 244.592L185.719 243.055L182.728 240.064L185.719 237.073L185.719 235.536L184.182 235.536L181.191 238.527L178.2 235.536L176.663 235.536L176.663 235.51Z" fill="white"/>
<path d="M206.079 235.51L206.079 237.047L209.07 240.039L206.079 243.03L206.079 244.592L207.616 244.592L210.607 241.601L213.598 244.592L215.135 244.592L215.135 243.055L212.137 240.064L215.129 237.073L215.129 235.536L213.598 235.536L210.607 238.527L207.616 235.536L206.079 235.536L206.079 235.51Z" fill="white"/>
<path d="M235.51 235.51L235.51 237.047L238.501 240.039L235.51 243.03L235.51 244.592L237.047 244.592L240.038 241.601L243.03 244.592L244.567 244.592L244.567 243.055L241.575 240.064L244.567 237.073L244.567 235.536L243.03 235.536L240.038 238.527L237.047 235.536L235.51 235.536L235.51 235.51Z" fill="white"/>
<path d="M264.95 235.51L264.95 237.047L267.941 240.039L264.95 243.03L264.95 244.592L266.487 244.592L269.478 241.601L272.469 244.592L274 244.592L274 243.055L271.009 240.064L274 237.073L274 235.536L272.469 235.536L269.478 238.527L266.487 235.536L264.95 235.536L264.95 235.51Z" fill="white"/>
<path d="M0.000487886 264.95L0.000487953 266.487L2.99164 269.478L0.000488214 272.463L0.000488281 274L1.5375 274L4.52865 271.009L7.51981 274L9.05686 274L9.05686 272.469L6.06571 269.478L9.05686 266.487L9.05686 264.95L7.51981 264.95L4.52865 267.941L1.5375 264.95L0.000487886 264.95Z" fill="white"/>
<path d="M29.4595 264.95L29.4595 266.487L32.4506 269.478L29.4595 272.463L29.4595 274L30.9965 274L33.9876 271.009L36.9788 274L38.5158 274L38.5158 272.469L35.5247 269.478L38.5158 266.487L38.5158 264.95L36.9916 264.95L34.0004 267.941L31.0093 264.95L29.4722 264.95L29.4595 264.95Z" fill="white"/>
<path d="M58.8927 264.951L58.8927 266.488L61.8647 269.466L58.8735 272.451L58.8735 273.988L60.4105 273.988L63.4017 270.997L66.3929 273.988L67.9299 273.988L67.9299 272.457L64.9387 269.466L67.9299 266.475L67.9299 264.938L66.3929 264.938L63.4017 267.929L60.4105 264.938L58.8735 264.938L58.8927 264.951Z" fill="white"/>
<path d="M88.3311 264.95L88.3311 266.487L91.3222 269.478L88.3311 272.463L88.3311 274L89.8681 274L92.8593 271.009L95.8504 274L97.3874 274L97.3874 272.469L94.3899 269.465L97.381 266.474L97.381 264.937L95.8441 264.937L92.8529 267.928L89.8618 264.937L88.3247 264.937L88.3311 264.95Z" fill="white"/>
<path d="M117.766 264.95L117.766 266.487L120.757 269.478L117.766 272.463L117.766 274L119.303 274L122.294 271.009L125.285 274L126.822 274L126.822 272.469L123.831 269.478L126.822 266.487L126.822 264.95L125.285 264.95L122.294 267.941L119.303 264.95L117.766 264.95Z" fill="white"/>
<path d="M147.204 264.95L147.204 266.487L150.195 269.478L147.204 272.463L147.204 274L148.741 274L151.732 271.009L154.723 274L156.254 274L156.254 272.469L153.263 269.478L156.254 266.487L156.254 264.95L154.717 264.95L151.726 267.941L148.735 264.95L147.198 264.95L147.204 264.95Z" fill="white"/>
<path d="M176.663 264.95L176.663 266.487L179.654 269.478L176.663 272.463L176.663 274L178.2 274L181.191 271.009L184.182 274L185.719 274L185.719 272.469L182.728 269.478L185.719 266.487L185.719 264.95L184.182 264.95L181.191 267.941L178.2 264.95L176.663 264.95Z" fill="white"/>
<path d="M206.079 264.95L206.079 266.487L209.07 269.478L206.079 272.463L206.079 274L207.616 274L210.607 271.009L213.598 274L215.135 274L215.135 272.469L212.137 269.478L215.129 266.487L215.129 264.95L213.598 264.95L210.607 267.941L207.616 264.95L206.079 264.95Z" fill="white"/>
<path d="M235.51 264.951L235.51 266.488L238.527 269.466L235.536 272.451L235.536 273.988L237.073 273.988L240.064 270.997L243.055 273.988L244.592 273.988L244.592 272.457L241.601 269.466L244.592 266.475L244.592 264.938L243.055 264.938L240.064 267.929L237.073 264.938L235.536 264.938L235.51 264.951Z" fill="white"/>
<path d="M264.95 264.95L264.95 266.487L267.941 269.478L264.95 272.463L264.95 274L266.487 274L269.478 271.009L272.469 274L274 274L274 272.469L271.009 269.478L274 266.487L274 264.95L272.469 264.95L269.478 267.941L266.487 264.95L264.95 264.95Z" fill="white"/>
</svg>
