<svg width="914" height="904" viewBox="0 0 914 904" fill="none" xmlns="http://www.w3.org/2000/svg">
<path d="M291.72 162.59L122.13 -7H-11V126.13L158.59 295.72H291.72V162.59Z" fill="#01D181"/>
<path d="M240.15 98L910.35 768.19V827.3H851.19L181 157.11V98H240.15ZM241.4 95H178V158.4L850 830.35H913.4V766.9L241.4 95Z" fill="#F9F9F5"/>
<path d="M477.59 889.431H475.18L470.49 894.121L465.8 889.431H463.39V891.841L468.08 896.531L463.39 901.221V903.621H465.8L470.49 898.931L475.18 903.621H477.59V901.221L472.9 896.531L477.59 891.841V889.431Z" fill="white"/>
<path d="M431.43 843.271H429.02L424.33 847.96L419.64 843.271H417.23V845.681L421.92 850.37L417.23 855.061V857.47H419.64L424.33 852.781L429.02 857.47H431.43V855.061L426.74 850.37L431.43 845.681V843.271Z" fill="white"/>
<path d="M431.43 889.431H429.02L424.33 894.121L419.64 889.431H417.23V891.841L421.92 896.531L417.23 901.221V903.621H419.64L424.33 898.931L429.02 903.621H431.43V901.221L426.74 896.531L431.43 891.841V889.431Z" fill="white"/>
<path d="M385.28 797.12H382.87L378.18 801.81L373.49 797.12H371.11V799.53L375.8 804.22L371.11 808.91V811.32H373.52L378.21 806.62L382.9 811.31H385.31V808.91L380.62 804.22L385.31 799.53V797.12H385.28Z" fill="white"/>
<path d="M385.28 843.271H382.87L378.18 847.96L373.49 843.271H371.11V845.681L375.8 850.37L371.11 855.061V857.47H373.52L378.21 852.781L382.9 857.47H385.31V855.061L380.62 850.37L385.31 845.681V843.271H385.28Z" fill="white"/>
<path d="M385.28 889.431H382.87L378.18 894.121L373.49 889.431H371.11V891.841L375.8 896.531L371.11 901.221V903.621H373.52L378.21 898.931L382.9 903.621H385.31V901.221L380.62 896.531L385.31 891.841V889.431H385.28Z" fill="white"/>
<path d="M339.11 751H336.7L332.01 755.69L327.32 751H324.91V753.41L329.6 758.1L324.91 762.79V765.2H327.32L332.01 760.51L336.7 765.2H339.11V762.79L334.42 758.1L339.11 753.41V751Z" fill="white"/>
<path d="M339.11 797.12H336.7L332.01 801.81L327.32 797.12H324.91V799.53L329.6 804.22L324.91 808.91V811.32H327.32L332.01 806.62L336.7 811.31H339.11V808.91L334.42 804.22L339.11 799.53V797.12Z" fill="white"/>
<path d="M339.11 843.271H336.7L332.01 847.96L327.32 843.271H324.91V845.681L329.6 850.37L324.91 855.061V857.47H327.32L332.01 852.781L336.7 857.47H339.11V855.061L334.42 850.37L339.11 845.681V843.271Z" fill="white"/>
<path d="M339.11 889.431H336.7L332.01 894.121L327.32 889.431H324.91V891.841L329.6 896.531L324.91 901.221V903.621H327.32L332.01 898.931L336.7 903.621H339.11V901.221L334.42 896.531L339.11 891.841V889.431Z" fill="white"/>
<path d="M292.97 704.811H290.56L285.87 709.501L281.18 704.811H278.77V707.221L283.46 711.911L278.77 716.601V719.001H281.18L285.87 714.311L290.56 719.001H292.97V716.591L288.28 711.901L292.97 707.211V704.801V704.811Z" fill="white"/>
<path d="M292.97 751H290.56L285.87 755.69L281.18 751H278.77V753.41L283.46 758.1L278.77 762.79V765.2H281.18L285.87 760.51L290.56 765.2H292.97V762.79L288.28 758.1L292.97 753.41V751Z" fill="white"/>
<path d="M292.97 797.12H290.56L285.87 801.81L281.18 797.12H278.77V799.53L283.46 804.22L278.77 808.91V811.32H281.18L285.87 806.62L290.56 811.31H292.97V808.91L288.28 804.22L292.97 799.53V797.12Z" fill="white"/>
<path d="M292.97 843.271H290.56L285.87 847.96L281.18 843.271H278.77V845.681L283.46 850.37L278.77 855.061V857.47H281.18L285.87 852.781L290.56 857.47H292.97V855.061L288.28 850.37L292.97 845.681V843.271Z" fill="white"/>
<path d="M292.97 889.431H290.56L285.87 894.121L281.18 889.431H278.77V891.841L283.46 896.531L278.77 901.221V903.621H281.18L285.87 898.931L290.56 903.621H292.97V901.221L288.28 896.531L292.97 891.841V889.431Z" fill="white"/>
<path d="M246.81 658.65H244.4L239.71 663.34L235.02 658.65H232.61V661.06L237.3 665.75L232.62 670.44V672.85H235.02L239.71 668.16L244.4 672.85H246.81V670.44L242.12 665.75L246.81 661.06V658.65Z" fill="white"/>
<path d="M246.81 704.811H244.4L239.71 709.501L235.02 704.811H232.61V707.221L237.3 711.911L232.62 716.601V719.001H235.02L239.71 714.311L244.4 719.001H246.81V716.591L242.12 711.901L246.81 707.211V704.801V704.811Z" fill="white"/>
<path d="M246.81 751H244.4L239.71 755.69L235.02 751H232.61V753.41L237.3 758.1L232.62 762.79V765.2H235.02L239.71 760.51L244.4 765.2H246.81V762.79L242.12 758.1L246.81 753.41V751Z" fill="white"/>
<path d="M246.81 797.12H244.4L239.71 801.81L235.02 797.12H232.61V799.53L237.3 804.22L232.62 808.91V811.32H235.02L239.71 806.62L244.4 811.31H246.81V808.91L242.12 804.22L246.81 799.53V797.12Z" fill="white"/>
<path d="M246.81 843.271H244.4L239.71 847.96L235.02 843.271H232.61V845.681L237.3 850.37L232.62 855.061V857.47H235.02L239.71 852.781L244.4 857.47H246.81V855.061L242.12 850.37L246.81 845.681V843.271Z" fill="white"/>
<path d="M246.81 889.431H244.4L239.71 894.121L235.02 889.431H232.61V891.841L237.3 896.531L232.62 901.221V903.621H235.02L239.71 898.931L244.4 903.621H246.81V901.221L242.12 896.531L246.81 891.841V889.431Z" fill="white"/>
<path d="M200.66 612.5H198.25L193.56 617.19L188.87 612.5H186.46V614.91L191.15 619.6L186.46 624.29V626.7H188.87L193.56 622.01L198.25 626.7H200.66V624.29L195.97 619.6L200.66 614.91V612.5Z" fill="white"/>
<path d="M200.66 658.65H198.25L193.56 663.34L188.87 658.65H186.46V661.06L191.15 665.75L186.46 670.44V672.85H188.87L193.56 668.16L198.25 672.85H200.66V670.44L195.97 665.75L200.66 661.06V658.65Z" fill="white"/>
<path d="M200.66 704.811H198.25L193.56 709.501L188.87 704.811H186.46V707.221L191.15 711.911L186.46 716.601V719.001H188.87L193.56 714.311L198.25 719.001H200.66V716.591L195.97 711.901L200.66 707.211V704.801V704.811Z" fill="white"/>
<path d="M200.66 751H198.25L193.56 755.69L188.87 751H186.46V753.41L191.15 758.1L186.46 762.79V765.2H188.87L193.56 760.51L198.25 765.2H200.66V762.79L195.97 758.1L200.66 753.41V751Z" fill="white"/>
<path d="M200.66 797.12H198.25L193.56 801.81L188.87 797.12H186.46V799.53L191.15 804.22L186.46 808.91V811.32H188.87L193.56 806.62L198.25 811.31H200.66V808.91L195.97 804.22L200.66 799.53V797.12Z" fill="white"/>
<path d="M200.66 843.271H198.25L193.56 847.96L188.87 843.271H186.46V845.681L191.15 850.37L186.46 855.061V857.47H188.87L193.56 852.781L198.25 857.47H200.66V855.061L195.97 850.37L200.66 845.681V843.271Z" fill="white"/>
<path d="M200.66 889.431H198.25L193.56 894.121L188.87 889.431H186.46V891.841L191.15 896.531L186.46 901.221V903.621H188.87L193.56 898.931L198.25 903.621H200.66V901.221L195.97 896.531L200.66 891.841V889.431Z" fill="white"/>
<path d="M154.5 566.34H152.11L147.42 571.03L142.73 566.34H140.33V568.75L145.02 573.44L140.33 578.13V580.54H142.73L147.42 575.85L152.11 580.54H154.52V578.13L149.83 573.44L154.52 568.75V566.34H154.5Z" fill="white"/>
<path d="M154.5 612.5H152.11L147.42 617.19L142.73 612.5H140.33V614.91L145.02 619.6L140.33 624.29V626.7H142.73L147.42 622.01L152.11 626.7H154.52V624.29L149.83 619.6L154.52 614.91V612.5H154.5Z" fill="white"/>
<path d="M154.5 658.65H152.11L147.42 663.34L142.73 658.65H140.33V661.06L145.02 665.75L140.33 670.44V672.85H142.73L147.42 668.16L152.11 672.85H154.52V670.44L149.83 665.75L154.52 661.06V658.65H154.5Z" fill="white"/>
<path d="M154.5 704.811H152.11L147.42 709.501L142.73 704.811H140.33V707.221L145.02 711.911L140.33 716.601V719.001H142.73L147.42 714.311L152.11 719.001H154.52V716.591L149.83 711.901L154.52 707.211V704.801L154.5 704.811Z" fill="white"/>
<path d="M154.5 751H152.11L147.42 755.69L142.73 751H140.33V753.41L145.02 758.1L140.33 762.79V765.2H142.73L147.42 760.51L152.11 765.2H154.52V762.79L149.83 758.1L154.52 753.41V751H154.5Z" fill="white"/>
<path d="M154.5 797.12H152.11L147.42 801.81L142.73 797.12H140.33V799.53L145.02 804.22L140.33 808.91V811.32H142.73L147.42 806.62L152.11 811.31H154.52V808.91L149.83 804.22L154.52 799.53V797.12H154.5Z" fill="white"/>
<path d="M154.5 843.271H152.11L147.42 847.96L142.73 843.271H140.33V845.681L145.02 850.37L140.33 855.061V857.47H142.73L147.42 852.781L152.11 857.47H154.52V855.061L149.83 850.37L154.52 845.681V843.271H154.5Z" fill="white"/>
<path d="M154.5 889.431H152.11L147.42 894.121L142.73 889.431H140.33V891.841L145.02 896.531L140.33 901.221V903.621H142.73L147.42 898.931L152.11 903.621H154.52V901.221L149.83 896.531L154.52 891.841V889.431H154.5Z" fill="white"/>
<path d="M108.35 520.19H105.94L101.25 524.88L96.5604 520.19H94.1104V522.6L98.8004 527.29L94.1104 532V534.41H96.5204L101.21 529.72L105.9 534.41H108.31V532L103.62 527.31L108.31 522.62V520.21L108.35 520.19Z" fill="white"/>
<path d="M108.35 566.34H105.94L101.25 571.03L96.5604 566.34H94.1104V568.75L98.8004 573.44L94.1104 578.13V580.54H96.5204L101.21 575.85L105.9 580.54H108.31V578.13L103.62 573.44L108.31 568.75V566.34H108.35Z" fill="white"/>
<path d="M108.35 612.5H105.94L101.25 617.19L96.5604 612.5H94.1104V614.91L98.8004 619.6L94.1104 624.29V626.7H96.5204L101.21 622.01L105.9 626.7H108.31V624.29L103.62 619.6L108.31 614.91V612.5H108.35Z" fill="white"/>
<path d="M108.35 658.65H105.94L101.25 663.34L96.5604 658.65H94.1104V661.06L98.8004 665.75L94.1104 670.44V672.85H96.5204L101.21 668.16L105.9 672.85H108.31V670.44L103.62 665.75L108.31 661.06V658.65H108.35Z" fill="white"/>
<path d="M108.35 704.811H105.94L101.25 709.501L96.5604 704.811H94.1104V707.221L98.8004 711.911L94.1104 716.601V719.001H96.5204L101.21 714.311L105.9 719.001H108.31V716.591L103.62 711.901L108.31 707.211V704.801L108.35 704.811Z" fill="white"/>
<path d="M108.35 751H105.94L101.25 755.69L96.5604 751H94.1104V753.41L98.8004 758.1L94.1104 762.79V765.2H96.5204L101.21 760.51L105.9 765.2H108.31V762.79L103.62 758.1L108.31 753.41V751H108.35Z" fill="white"/>
<path d="M108.35 797.12H105.94L101.25 801.81L96.5604 797.12H94.1104V799.53L98.8004 804.22L94.1104 808.91V811.32H96.5204L101.21 806.62L105.9 811.31H108.31V808.91L103.62 804.22L108.31 799.53V797.12H108.35Z" fill="white"/>
<path d="M108.35 843.271H105.94L101.25 847.96L96.5604 843.271H94.1104V845.681L98.8004 850.37L94.1104 855.061V857.47H96.5204L101.21 852.781L105.9 857.47H108.31V855.061L103.62 850.37L108.31 845.681V843.271H108.35Z" fill="white"/>
<path d="M108.35 889.431H105.94L101.25 894.121L96.5604 889.431H94.1104V891.841L98.8004 896.531L94.1104 901.221V903.621H96.5204L101.21 898.931L105.9 903.621H108.31V901.221L103.62 896.531L108.31 891.841V889.431H108.35Z" fill="white"/>
<path d="M62.19 474H59.78L55.09 478.69L50.41 474H48V476.41L52.69 481.1L48 485.79V488.2H50.4L55.09 483.51L59.78 488.2H62.19V485.79L57.5 481.1L62.19 476.41V474Z" fill="white"/>
<path d="M62.19 520.19H59.78L55.09 524.88L50.41 520.19H48V522.6L52.69 527.29L48 531.98V534.39H50.4L55.09 529.7L59.78 534.39H62.19V532L57.5 527.31L62.19 522.62V520.21V520.19Z" fill="white"/>
<path d="M62.1895 566.341H59.7796L55.1096 571.001L50.4296 566.311H48.0195V568.721L52.7096 573.411L48.0195 578.101V580.511H50.4196L55.1096 575.82L59.7996 580.511H62.2096V578.101L57.5196 573.411L62.2096 568.721V566.311L62.1895 566.341Z" fill="white"/>
<path d="M62.19 612.5H59.78L55.09 617.19L50.41 612.5H48V614.91L52.69 619.6L48 624.29V626.7H50.4L55.11 622L59.8 626.69H62.21V624.28L57.52 619.59L62.21 614.9V612.49L62.19 612.5Z" fill="white"/>
<path d="M62.19 658.65H59.78L55.09 663.34L50.41 658.65H48V661.06L52.69 665.75L48 670.44V672.85H50.4L55.09 668.16L59.78 672.85H62.19V670.44L57.5 665.75L62.19 661.06V658.65Z" fill="white"/>
<path d="M62.19 704.811H59.78L55.09 709.501L50.41 704.811H48V707.221L52.69 711.911L48 716.601V719.001H50.4L55.09 714.311L59.78 719.001H62.19V716.591L57.5 711.901L62.19 707.211V704.801V704.811Z" fill="white"/>
<path d="M62.19 751H59.78L55.09 755.69L50.41 751H48V753.41L52.69 758.1L48 762.79V765.2H50.4L55.09 760.51L59.78 765.2H62.19V762.79L57.5 758.1L62.19 753.41V751Z" fill="white"/>
<path d="M62.19 797.12H59.78L55.09 801.81L50.41 797.12H48V799.53L52.69 804.22L48 808.91V811.32H50.4L55.09 806.62L59.78 811.31H62.19V808.91L57.5 804.22L62.19 799.53V797.12Z" fill="white"/>
<path d="M62.1895 843.271H59.7796L55.1096 848L50.4296 843.311H48.0195V845.72L52.7096 850.411L48.0195 855.1V857.51H50.4196L55.1096 852.82L59.7996 857.51H62.2096V855.1L57.5196 850.411L62.2096 845.72V843.311L62.1895 843.271Z" fill="white"/>
<path d="M62.19 889.431H59.78L55.09 894.121L50.41 889.431H48V891.841L52.69 896.531L48 901.221V903.621H50.4L55.09 898.931L59.78 903.621H62.19V901.221L57.5 896.531L62.19 891.841V889.431Z" fill="white"/>
</svg>
